PathFileType	3	(X/Y/Z)	D:\Jess\Healthy\Labelled\HA03\20250325\SRRun01.trc
DataRate	CameraRate	NumFrames	NumMarkers	Units	OrigDataRate	OrigDataStartFrame	OrigNumFrames
250.0	250.0	4	33	mm	250.0	36875	2501
Frame#	Time	C7			T10			CLAV			LSHO			RSHO			LASIS			RASIS			LPSIS			RPSIS			LILCR			RILCR			LGTR			LTHI			LLTHI			LLEP			LPSH			LLSH			LDSH			LLMAL			LTOE			L5TH			LHEE			RGTR			RTHI			RLTHI			RLEP			RPSH			RLSH			RDSH			RLMAL			RTOE			R5TH			RHEE			
		X1	Y1	Z1	X2	Y2	Z2	X3	Y3	Z3	X4	Y4	Z4	X5	Y5	Z5	X6	Y6	Z6	X7	Y7	Z7	X8	Y8	Z8	X9	Y9	Z9	X10	Y10	Z10	X11	Y11	Z11	X12	Y12	Z12	X13	Y13	Z13	X14	Y14	Z14	X15	Y15	Z15	X16	Y16	Z16	X17	Y17	Z17	X18	Y18	Z18	X19	Y19	Z19	X20	Y20	Z20	X21	Y21	Z21	X22	Y22	Z22	X23	Y23	Z23	X24	Y24	Z24	X25	Y25	Z25	X26	Y26	Z26	X27	Y27	Z27	X28	Y28	Z28	X29	Y29	Z29	X30	Y30	Z30	X31	Y31	Z31	X32	Y32	Z32	X33	Y33	Z33	

1876	147.496	825.9236407478235	1407.557411343535	-251.2773204560555	736.7032608900222	1155.356622258618	-279.4658545137091	947.7676882811078	1301.848951596966	-250.3888950664623	897.4200057287296	1395.286955300426	-406.5086469302517	872.2164772054904	1361.062623721994	-97.08426666714102	871.2102520587679	954.3669945277891	-375.1775814149058	866.2257004808622	971.6024140508516	-188.8928837870923	703.2443192603872	1002.652460039615	-314.8830829603617	700.5138767752774	1003.998807784132	-268.1815569706543	816.3343389739301	992.2875394714401	-427.3956316781417	794.0438193602363	997.1266662565562	-137.9209816080831	856.052432062139	874.9542890474341	-427.5673024146134	928.2491890003158	676.561372309996	-373.7100854776982	861.4713083461354	601.2032643946355	-432.8662749923885	851.4716882781562	469.5736472534217	-411.4664405628744	773.9022324536776	388.217648651135	-369.8650847572074	646.6166885755975	445.8314909238781	-418.4090541123097	579.7230945014857	379.1574372673912	-372.2547168286005	469.6281940749477	419.5993907465182	-401.8337857822199	423.5112070993571	266.6537695250659	-391.8478357906349	402.2570601260647	303.0107872756041	-428.6408239652895	453.1080172658915	481.0821166484836	-343.9089807764728	785.1727902721453	907.5849754652187	-117.4279419752782	952.3005213846105	713.0367189045012	-190.2673102909451	920.3572785771123	597.6540365881093	-144.6469802927644	937.4906536554445	491.9089164630277	-169.9280807049254	936.5861705545957	369.0309617785406	-231.9220119221444	844.8680488755763	280.1817131720657	-174.8565845918863	837.1906503901519	167.9791883322926	-240.564999182206	759.6814088346152	112.4252057966825	-211.9167899006117	899.7470891910039	64.05952880370748	-230.6783370429755	853.5948935596032	47.63175184130544	-187.0730952079185	674.8157585196127	91.45502733164489	-257.2186298785395	
1877	147.5	825.8768189330883	1406.941002058441	-250.7529140240071	736.1655714499485	1155.022911998504	-279.1577277314443	947.547724525697	1300.977266464266	-251.1554609464961	896.1508111439197	1394.943918838003	-406.5897055918857	873.5365633962549	1359.812688989584	-97.01744335711578	869.8898108899566	953.8002874700306	-375.5847597790737	865.6038053218806	970.8244377736456	-189.2992925491871	702.2611551062813	1002.459188049315	-314.4576122327824	699.7308911856675	1003.973664009897	-267.7632582199507	814.4952326050944	991.734845486892	-427.5680538573221	793.8431700372944	996.8040943453243	-137.9597985652455	854.8421272525353	874.5677634123257	-428.0631439158003	930.8664552810236	677.7953698517566	-373.3676768587532	866.2026611775808	601.4955571317365	-433.4661864456772	858.7782185825891	470.0693557327247	-411.7055766393275	781.8976009888537	388.4468319262885	-370.0592186045025	654.5738232826812	445.6297141826579	-418.6798272031058	587.884219933495	378.4888826633934	-372.4606174106295	477.5534402490887	418.3358395019752	-402.1742969748695	433.8675806331868	264.7204814020843	-392.2273323312159	412.4446457268609	300.6137386238613	-429.3527135668143	459.422594557023	479.696329266702	-344.531795559495	784.6548374748492	907.3690879439076	-117.2389892212826	949.1288079616038	710.5076381683933	-190.2513318905014	915.5374589218178	595.7464590362276	-144.3455818270627	931.3272524117186	489.6072130289201	-169.5880145765962	929.0774187532755	366.7787963511067	-231.7171817933496	836.5211156353697	278.9308618284538	-174.7645174497729	827.3259200625179	167.2773521690081	-240.3655769718365	749.2315734857447	112.5334361333875	-211.5988572969175	888.9237375912521	63.7927820851183	-230.5017542903078	842.7086964741694	47.45167666831994	-186.8987189316437	664.1240316988295	91.8337711585029	-256.9565421195539	
1878	147.504	825.7912411017984	1406.525727577088	-250.2493444182573	735.6802588443219	1154.879849877644	-278.825842211586	947.3207537375079	1300.401260870694	-251.9845595330129	894.7744393550064	1394.897623891019	-406.6771609456881	874.874106191361	1358.849065347141	-97.03766885712263	868.6183781390077	953.4518095661009	-375.9608823506767	865.0203234586572	970.190363435268	-189.698298209344	701.3390718363963	1002.496904315656	-313.9771711978752	699.000125657631	1004.191941324348	-267.2728640724086	812.7401142625868	991.4570814340577	-427.6806893800368	793.745160621524	996.6733913663417	-137.9672283450142	853.6104570083404	874.4170485672339	-428.5627067869294	933.4897960725075	679.3326386502547	-373.0371477625728	870.9318603240031	602.1387985592604	-434.049526145667	866.0613830966183	470.9224302589237	-411.9048895849935	789.9829721959229	388.900352741283	-370.2102785822182	662.5344129567337	445.4201211451289	-418.935574693179	596.1536104549858	377.6865971565188	-372.6372619220938	485.4897421142511	416.6916227012995	-402.5154269537655	444.4735107014188	262.3932897027483	-392.4237749553307	422.7910127100516	297.7509857670049	-429.8939447709993	465.6910901190911	477.9384591596092	-345.2196390787108	784.1811998495357	907.3243558907459	-117.0052840642754	945.770439151147	708.062992217182	-190.3172021920135	910.4788725755411	593.97927045762	-144.0943048252794	924.7828423443653	487.4188340438042	-169.2808332102897	921.2616419065173	364.6425687064023	-231.5218756703653	827.8963059454489	277.7648704895283	-174.7122877613104	817.3520399061466	166.6391651239443	-240.1969591777883	738.7344098135932	112.6620018350506	-211.3235661556398	878.0805394752574	63.51969416776351	-230.3567045543951	831.797550470686	47.26977972681472	-186.7497751388617	653.4198328076707	92.24156938253287	-256.7231637617227	
1879	147.508	825.6721769740152	1406.313920663459	-249.7642732173382	735.2493333097345	1154.924271624897	-278.4683586295117	947.0903666443448	1300.117890326638	-252.8757220261503	893.2932117904243	1395.1450001233	-406.7720475633215	876.2330002146596	1358.167982636817	-97.14074747721914	867.4113525922353	953.3205765337462	-376.2847349628071	864.4696644390748	969.7062924397908	-190.0661892402325	700.4819932806158	1002.756873189148	-313.4582410127659	698.3220643249604	1004.639829477632	-266.7287485746982	811.0953825073806	991.4454412773007	-427.7301065358639	793.7239067035188	996.7288712330684	-137.9410907354307	852.3873051436814	874.4993639139517	-429.043242681171	936.1123042376344	681.1732265553946	-372.7221662970225	875.638477307054	603.1325150179692	-434.6127297635509	873.2948619142176	472.1293023361242	-412.0717813155126	798.1346681864638	389.576732866134	-370.3221992249119	670.4722096506391	445.1938805127335	-419.1797089204314	604.5113198233421	376.7529510539715	-372.7862297403117	493.4247787765171	414.6718578769243	-402.8522786754526	455.3083199503624	259.6924863156667	-392.4478595321184	433.2765567004961	294.4471939976891	-430.2674252750343	471.9151393979572	475.8002504587884	-345.9558825466802	783.7267083123295	907.4451018712122	-116.7343047573108	942.2297994374843	705.739645702845	-190.4721389614755	905.2153607931662	592.3766405285949	-143.903527926546	917.9005404893109	485.3795515189768	-169.0219363857756	913.1708191867464	362.6538422452359	-231.3484892169544	819.0172153981121	276.7188989557847	-174.7057731708308	807.2794641340357	166.0817028853663	-240.066734763212	728.1926823806932	112.831996275455	-211.0949836568413	867.2158929775895	63.24536640618034	-230.2462856583953	820.8583203082701	47.09619945732722	-186.6301042900563	642.7037995959686	92.69973674651168	-256.5193381782831	
